' Generated by UML Generator
' Encoded: jHXhRzD8y7j_XSKdzvgWjd08B1sYf1Hofq8WxHM44DhQcsIfipRschHmvBVVpBxNZ-Zkf9CexSxCpixxuMUr89LerlbUVSDuIIgoZjASrFM941MxRWITfWMVi-yqEjnRiOn6AQlIdExjIQhe1HTCt4K_zgBeO5DKUVO-YHWNzlZ17kkIqioSjiioYMQ4qnnHJNcKHC-RnO9MD9kkoP8gw74FD2is_6W0taUVquKu6e3tqLTikUgz816z4h6Afe8LF8dcO3E-LDfMJD19qN11Awbrz1jOq69UDsi3FPBG8cVPIKL94hq3ReGlSmeuJZVk71-E8lZty37-xEEjjCXpLiFJR-3nwwB8AU5mQq7oMef6f5ozKfZtJkc2DBbmRcjZh0Ut6IDviMneRHJL0gh3n-F3JpxLb6VqrdzpF4RsAc1Ywt-fHqt5YHGrta-YRmNBTC2G6nz0UNQgcVlWfio8221PHJRn4dpriYBbYgNryQdFbugcZ1cwRqR4oYYpttRjJnFZhsUJpxEgMAWeDwUM2aig42glnk5hVKBtQjode9LYbfCxMaaPjZVqxbKI_G7_4vxbj98SqufIxlbHdbt-hKWzAK0_6iG1GbUKYFcAKj76p2XFMTxreHB56M0KjGKoNjKnz2V98MnyLT5Saal7O5rtbYozkIpVN7-1H8YP5CV3Cenj27JmInUv8nAiOKzg47HEXJ3MzMkJKjWZwKQk5YnqBahJUMbYqXLCdjuCFzUcQxsP8lI2GK6WCfaINOKz2II95Yma6aMbjBkj5_isGkGbdP_jIz0bbXWWwlpnK-kMZeX-UQp-fqIGQrBJSyB1wKhzyG_eG8AbFwEoAaeeBP159Qq4exKkBmuGxniJZLki9ER0iW9H9mNdr6QOEpbfNf8rHJQJd87SIfWGrk8A2GMHYIHpMgDxuYNy_Hf-J0qPHHc5l6EbtmwSgHodlAWxZAPPEtejFJIOeiemBBHA7lq8i7NHL2czk2ifjWzt6aLV6w9z8abv8Lpv7dxfRSE-0n_8tF0bKGYIdvFgfjQ04Wm9dEPmc_eHzR_m7KMfTQFlqawSkJhKpJ2eBpCmM8spYEPhneS-E8u9VN0v3VGXA9QZ7eJAR2TPAwUXWAB3ifZAClhY6mqY0T2Qvp31EmfF3L1OqvmJnbKViwvP0oY6zBPn8RExTUtkYd6mqGG3LoUkvq4yRYH14lr-1ZCajHg7DqEtXrUa7JQM60I9rKbgaaHNxj1jZcX8vUm2NCCuoR50ujngnwn7YArJablG0tnHjEZQzwDV8da9QTVaTYxRAgHYmDTXtg526dFi-l0Lot3KK0ZXMFiS7VKhYk6rYnoUqSzUuPZjoVFheO_mn548EPNlaCQmixIxP35Fe6KNPMs87k5BMoGzJoAqeodugg1xa5YiM6qI89WWDAsNC8PqYp5qiO9Y376aVii-f9jbqcspYbMdgzgtYMhjIJ0Ag4j-vxVq3SmPbrDDSJbr2DDQzQoc-vVgZKYa1YL9Mbn_mVol89fLdpRK7kZZaHof3tYPcfwggNGRrlYqgV0Ip1p1qFtaoHF4VeNH2yjaxUydHTa14LvlQ5MxngwuljNNW-7mAnJoESrDBVOmKEPn7Jhnc6dK5elw7F0srMH-e3TrdTSFWsgv1pASqRW1L2vE9MdgaFXOBMLgZWum3wpeFlIXcsknYiJxTad03XstDmViOJuGoZ8L7KhSgb_QE0te6xvxt9K3bRBV2SzEic-4f-4y30KRvfjrMN0SKfPkkktKHOZIJWVSaWgCy_dXOHAT5MgpKv37XyyTg8Pme1LRV7xWqQLoWP0ZUtSHtgPsaHYYAEL2COGDvtHPnQ3b0N9WkzLORnkzTm_vQ7ZVsel1TiOugrSqcu61UldwH6S45w0U8fqTPbzh2m5vi5v3uVBsV2k0rpHbs445QIqLgs9phfI81RqLFGERZhbf5hFiNomz6diXCqmsalRUF9Fvr471HFr-KLGJETxGx0AaQekcinUP6AlqFp5lhbKlZs_r871d1mBJbqRHolMTrdtCm07XiKI469SAq8-WPbw0AzK09BkwMZzDpsy5vIw11huLk6LwSBcp5BxNlHqHKsnuCqHixyMWbqW5MN-U7N1lOmc-8lK6-iwlUji6xPa4njLjqK5qHVrFNxZwlrCDVSNwqFrMqPCCeyZPhpD8oWerP7w5xJK_3ZMxpRx3p04NVpiELnUSgDH0fKQy4lyq5SOAwOzNdMzKYEpxHeLVnEpiC8ga3k5csnNVuv0N93idPRm0zgsFQl_iKuoURiRZfrfT-z5jFFxhgPvt7F3-VKEdHosVoeAU-f_8DDJTz8SzzsvdUDo1GbxwJMzmTHVKLe9dpoSUr9VE0jklQ5Gn7ll3g7VXSkeTb9O-m2iB7bYB3VE1fv-hNTASmTK0wImYYrKFjK4uKtZLIKhjwaE8z5ohSh7BtI8CfPysmr2PECyepvfr_ZS
' URL: http://www.plantuml.com/plantuml/uml/jHXhRzD8y7j_XSKdzvgWjd08B1sYf1Hofq8WxHM44DhQcsIfipRschHmvBVVpBxNZ-Zkf9CexSxCpixxuMUr89LerlbUVSDuIIgoZjASrFM941MxRWITfWMVi-yqEjnRiOn6AQlIdExjIQhe1HTCt4K_zgBeO5DKUVO-YHWNzlZ17kkIqioSjiioYMQ4qnnHJNcKHC-RnO9MD9kkoP8gw74FD2is_6W0taUVquKu6e3tqLTikUgz816z4h6Afe8LF8dcO3E-LDfMJD19qN11Awbrz1jOq69UDsi3FPBG8cVPIKL94hq3ReGlSmeuJZVk71-E8lZty37-xEEjjCXpLiFJR-3nwwB8AU5mQq7oMef6f5ozKfZtJkc2DBbmRcjZh0Ut6IDviMneRHJL0gh3n-F3JpxLb6VqrdzpF4RsAc1Ywt-fHqt5YHGrta-YRmNBTC2G6nz0UNQgcVlWfio8221PHJRn4dpriYBbYgNryQdFbugcZ1cwRqR4oYYpttRjJnFZhsUJpxEgMAWeDwUM2aig42glnk5hVKBtQjode9LYbfCxMaaPjZVqxbKI_G7_4vxbj98SqufIxlbHdbt-hKWzAK0_6iG1GbUKYFcAKj76p2XFMTxreHB56M0KjGKoNjKnz2V98MnyLT5Saal7O5rtbYozkIpVN7-1H8YP5CV3Cenj27JmInUv8nAiOKzg47HEXJ3MzMkJKjWZwKQk5YnqBahJUMbYqXLCdjuCFzUcQxsP8lI2GK6WCfaINOKz2II95Yma6aMbjBkj5_isGkGbdP_jIz0bbXWWwlpnK-kMZeX-UQp-fqIGQrBJSyB1wKhzyG_eG8AbFwEoAaeeBP159Qq4exKkBmuGxniJZLki9ER0iW9H9mNdr6QOEpbfNf8rHJQJd87SIfWGrk8A2GMHYIHpMgDxuYNy_Hf-J0qPHHc5l6EbtmwSgHodlAWxZAPPEtejFJIOeiemBBHA7lq8i7NHL2czk2ifjWzt6aLV6w9z8abv8Lpv7dxfRSE-0n_8tF0bKGYIdvFgfjQ04Wm9dEPmc_eHzR_m7KMfTQFlqawSkJhKpJ2eBpCmM8spYEPhneS-E8u9VN0v3VGXA9QZ7eJAR2TPAwUXWAB3ifZAClhY6mqY0T2Qvp31EmfF3L1OqvmJnbKViwvP0oY6zBPn8RExTUtkYd6mqGG3LoUkvq4yRYH14lr-1ZCajHg7DqEtXrUa7JQM60I9rKbgaaHNxj1jZcX8vUm2NCCuoR50ujngnwn7YArJablG0tnHjEZQzwDV8da9QTVaTYxRAgHYmDTXtg526dFi-l0Lot3KK0ZXMFiS7VKhYk6rYnoUqSzUuPZjoVFheO_mn548EPNlaCQmixIxP35Fe6KNPMs87k5BMoGzJoAqeodugg1xa5YiM6qI89WWDAsNC8PqYp5qiO9Y376aVii-f9jbqcspYbMdgzgtYMhjIJ0Ag4j-vxVq3SmPbrDDSJbr2DDQzQoc-vVgZKYa1YL9Mbn_mVol89fLdpRK7kZZaHof3tYPcfwggNGRrlYqgV0Ip1p1qFtaoHF4VeNH2yjaxUydHTa14LvlQ5MxngwuljNNW-7mAnJoESrDBVOmKEPn7Jhnc6dK5elw7F0srMH-e3TrdTSFWsgv1pASqRW1L2vE9MdgaFXOBMLgZWum3wpeFlIXcsknYiJxTad03XstDmViOJuGoZ8L7KhSgb_QE0te6xvxt9K3bRBV2SzEic-4f-4y30KRvfjrMN0SKfPkkktKHOZIJWVSaWgCy_dXOHAT5MgpKv37XyyTg8Pme1LRV7xWqQLoWP0ZUtSHtgPsaHYYAEL2COGDvtHPnQ3b0N9WkzLORnkzTm_vQ7ZVsel1TiOugrSqcu61UldwH6S45w0U8fqTPbzh2m5vi5v3uVBsV2k0rpHbs445QIqLgs9phfI81RqLFGERZhbf5hFiNomz6diXCqmsalRUF9Fvr471HFr-KLGJETxGx0AaQekcinUP6AlqFp5lhbKlZs_r871d1mBJbqRHolMTrdtCm07XiKI469SAq8-WPbw0AzK09BkwMZzDpsy5vIw11huLk6LwSBcp5BxNlHqHKsnuCqHixyMWbqW5MN-U7N1lOmc-8lK6-iwlUji6xPa4njLjqK5qHVrFNxZwlrCDVSNwqFrMqPCCeyZPhpD8oWerP7w5xJK_3ZMxpRx3p04NVpiELnUSgDH0fKQy4lyq5SOAwOzNdMzKYEpxHeLVnEpiC8ga3k5csnNVuv0N93idPRm0zgsFQl_iKuoURiRZfrfT-z5jFFxhgPvt7F3-VKEdHosVoeAU-f_8DDJTz8SzzsvdUDo1GbxwJMzmTHVKLe9dpoSUr9VE0jklQ5Gn7ll3g7VXSkeTb9O-m2iB7bYB3VE1fv-hNTASmTK0wImYYrKFjK4uKtZLIKhjwaE8z5ohSh7BtI8CfPysmr2PECyepvfr_ZS
' Generated on: 2025-12-03T18:50:16.012477

@startuml dia
skinparam classAttributeIconSize 0
hide circle

class Entity {
  +worldX: int
  +worldY: int
  +speed: int
  ~gp: Panel
  +up1: BufferedImage
  +up2: BufferedImage
  +down1: BufferedImage
  +down2: BufferedImage
  +left1: BufferedImage
  +left2: BufferedImage
  +right1: BufferedImage
  +right2: BufferedImage
  +direction: String
  +spriteCounter: int = 0
  +spriteNum: int = 1
  +solidArea: Rectangle = new Rectangle(0, 0, 48, 48)
  +collisionOn: boolean = false
  +actionCounter: int = 0
  +solidAreaDefaultX: int
  +solidAreaDefaultY: int
  ~dialogues: String = new String[20]
  ~dialogueIndex: int = 0
  --
  +Entity(gp: Panel)
  +setAction(): void
  +speak(): void
  +endDialogue(): void
  +update(): void
  +draw(g2: Graphics2D): void
  +setup(imagePath: String): BufferedImage
}

class NPC_Prof {
  +NPC_Prof(gp: Panel)
  +getProfImage(): void
  +setDialogue(): void
  +setAction(): void
  +endDialogue(): void
}

class Player {
  ~keyH: KeyHandler
  +screenX: int
  +screenY: int
  +hasCoffee: int = 0
  +hasCheatSheet: int = 0
  +hasPencil: int = 0
  --
  +Player(gp: Panel, keyH: KeyHandler)
  +setDefaultValues(): void
  +getPlayerImage(): void
  +update(): void
  +pickUpObject(i: int): void
  +interactNPC(i: int): void
  +draw(g2: Graphics2D): void
}

class AssetSetter {
  ~gp: Panel
  --
  +AssetSetter(gp: Panel)
  +setObject(): void
  +setNPC(): void
}

class CollisionChecker {
  ~gp: Panel
  --
  +CollisionChecker(gp: Panel)
  +checkTile(entity: Entity): void
  +checkObject(entity: Entity, player: boolean): int
  +checkEntity(entity: Entity, target: Entity[]): int
  +checkPlayer(entity: Entity): void
}

class DatabaseManager {
  -{static} props: Properties = new Properties()
  --
  -DatabaseManager()
  +{static} getConnection(): Connection
}

class GameDataClient {
  -GameDataClient()
  +{static} createGameSession(gameName: String, description: String): int
  +{static} closeGameSession(gameId: int): void
  +{static} recordCollection(gameId: int, resourceType: ResourceType, quantity: int, notes: String): void
  +{static} recordQuizResult(gameId: int, totalMarks: int, passingState: boolean): void
  +{static} recordQuizResult(gameId: int, totalMarks: int, passingState: boolean, connection: Connection): void
}

class KeyHandler {
  ~gp: Panel
  +upPressed: boolean
  +downPressed: boolean
  +leftPressed: boolean
  +rightPressed: boolean
  +enterPressed: boolean
  --
  +KeyHandler(gp: Panel)
  +keyTyped(e: KeyEvent): void
  +keyPressed(e: KeyEvent): void
  +keyReleased(e: KeyEvent): void
}

class Main {
  +{static} main(args: String[]): void
}

class MyWindowCloser {
  -gameId: int
  -window: JFrame
  --
  +MyWindowCloser(gameId: int, window: JFrame)
  +windowClosing(windowEvent: WindowEvent): void
}

class Panel {
  ~originalTileSize: int = 16
  ~scale: int = 3
  +tileSize: int = originalTileSize * scale
  +maxScreenCol: int = 16
  +maxScreenRow: int = 12
  +screenWidth: int = tileSize * maxScreenCol
  +screenHeight: int = tileSize * maxScreenRow
  +maxWorldCol: int = 50
  +maxWorldRow: int = 50
  +worldWidth: int = tileSize * maxWorldCol
  +worldHeight: int = tileSize * maxWorldRow
  ~fps: int = 60
  ~tileM: TileManager = new TileManager(this)
  +keyH: KeyHandler = new KeyHandler(this)
  ~gameThread: Thread
  +cChecker: CollisionChecker = new CollisionChecker(this)
  +aSetter: AssetSetter = new AssetSetter(this)
  +ui: UI = new UI(this)
  +player: Player = new Player(this, keyH)
  +obj: ParentObject = new ParentObject[10]
  +npc: Entity = new Entity[10]
  +currentNPCIndex: int = 999
  +questions: String
  +options: String
  +answers: int
  +currentQuestion: int = 0
  +quizSelection: int = 0
  +correctAnswers: int = 0
  ~passScore: int = 2
  +gameState: int
  +titleState: int = 0
  +playState: int = 1
  +pauseState: int = 2
  +dialogueState: int = 3
  +quizState: int = 4
  --
  +Panel()
  +setupGame(): void
  +setupQuiz(): void
  +resetGame(): void
  +startGameThread(): void
  +run(): void
  +update(): void
  +checkAnswerAndAdvance(): void
  +paintComponent(g: Graphics): void
}

class UI {
  ~gp: Panel
  ~arial_40: Font
  ~arial_80B: Font
  ~sanserif_30: Font
  ~coffeeImage: BufferedImage
  ~cheatSheetImage: BufferedImage
  ~pencilImage: BufferedImage
  ~g2: Graphics2D
  +messageOn: boolean = false
  +message: String = ""
  ~messageCounter: int = 0
  +gameFinishedPass: boolean = false
  +gameFinishedFail: boolean = false
  +currentDialogue: String = ""
  +commandNum: int = 0
  +gameId: int
  --
  +UI(gp: Panel)
  +showMessage(text: String): void
  +setGameId(id: int): void
  +draw(g2: Graphics2D): void
  +drawTitleScreen(): void
  +drawPauseScreen(): void
  +getXforCenteredText(text: String): int
  +drawDialogueScreen(): void
  +drawSubWindow(x: int, y: int, width: int, height: int): void
  +drawQuizScreen(): void
  +drawPlayScreen(): void
}

class UtilityTool {
  +scaleImage(original: BufferedImage, width: int, height: int): BufferedImage
}

class CheatSheet {
  ~gp: Panel
  --
  +CheatSheet(gp: Panel)
}

class Coffee {
  ~gp: Panel
  --
  +Coffee(gp: Panel)
}

class ParentObject {
  +image: BufferedImage
  +name: String
  +collision: boolean = false
  +worldX: int
  +worldY: int
  ~uTool: UtilityTool = new UtilityTool()
  +solidArea: Rectangle = new Rectangle(0, 0, 48, 48)
  +solidAreaDefaultX: int = 0
  +solidAreaDefaultY: int = 0
  --
  +draw(g2: Graphics2D, gp: Panel): void
}

class Pencil {
  ~gp: Panel
  --
  +Pencil(gp: Panel)
}

class Tile {
  +image: BufferedImage
  +collision: boolean = false
}

class TileManager {
  ~gp: Panel
  +tile: Tile
  +mapTileNum: int
  --
  +TileManager(gp: Panel)
  +getTileImage(): void
  +setup(index: int, imageName: String, collision: boolean): void
  +loadMap(filePath: String): void
  +draw(g2: Graphics2D): void
}

Entity --> Panel
NPC_Prof --|> Entity
NPC_Prof ..> Panel
Player --|> Entity
Player --> KeyHandler
Player ..> Panel
AssetSetter --> Panel
CollisionChecker --> Panel
CollisionChecker ..> Entity
KeyHandler --> Panel
Panel --> TileManager
Panel --> KeyHandler
Panel --> CollisionChecker
Panel o-- AssetSetter
Panel --> UI
Panel --> Player
Panel --> ParentObject
Panel --> Entity
UI --> Panel
CheatSheet --|> ParentObject
CheatSheet --> Panel
Coffee --|> ParentObject
Coffee --> Panel
ParentObject --> UtilityTool
ParentObject ..> Panel
Pencil --|> ParentObject
Pencil --> Panel
TileManager --> Panel
TileManager --> Tile
@enduml